<svg width="25" height="25" viewBox="0 0 25 25" fill="none" xmlns="http://www.w3.org/2000/svg">
<g clip-path="url(#clip0_254_3)">
<path d="M12.5 2.08333C18.2532 2.08333 22.9167 6.74687 22.9167 12.5C22.9167 18.2531 18.2532 22.9167 12.5 22.9167C6.74692 22.9167 2.08337 18.2531 2.08337 12.5C2.08337 6.74687 6.74692 2.08333 12.5 2.08333ZM12.5 4.16666C10.2899 4.16666 8.17029 5.04464 6.60748 6.60744C5.04468 8.17024 4.16671 10.2899 4.16671 12.5C4.16671 14.7101 5.04468 16.8297 6.60748 18.3926C8.17029 19.9554 10.2899 20.8333 12.5 20.8333C14.7102 20.8333 16.8298 19.9554 18.3926 18.3926C19.9554 16.8297 20.8334 14.7101 20.8334 12.5C20.8334 10.2899 19.9554 8.17024 18.3926 6.60744C16.8298 5.04464 14.7102 4.16666 12.5 4.16666ZM7.81254 10.9375C8.22694 10.9375 8.62437 11.1021 8.91739 11.3951C9.21042 11.6882 9.37504 12.0856 9.37504 12.5C9.37504 12.9144 9.21042 13.3118 8.91739 13.6048C8.62437 13.8979 8.22694 14.0625 7.81254 14.0625C7.39814 14.0625 7.00071 13.8979 6.70769 13.6048C6.41466 13.3118 6.25004 12.9144 6.25004 12.5C6.25004 12.0856 6.41466 11.6882 6.70769 11.3951C7.00071 11.1021 7.39814 10.9375 7.81254 10.9375ZM12.5 10.9375C12.9144 10.9375 13.3119 11.1021 13.6049 11.3951C13.8979 11.6882 14.0625 12.0856 14.0625 12.5C14.0625 12.9144 13.8979 13.3118 13.6049 13.6048C13.3119 13.8979 12.9144 14.0625 12.5 14.0625C12.0856 14.0625 11.6882 13.8979 11.3952 13.6048C11.1022 13.3118 10.9375 12.9144 10.9375 12.5C10.9375 12.0856 11.1022 11.6882 11.3952 11.3951C11.6882 11.1021 12.0856 10.9375 12.5 10.9375ZM17.1875 10.9375C17.6019 10.9375 17.9994 11.1021 18.2924 11.3951C18.5854 11.6882 18.75 12.0856 18.75 12.5C18.75 12.9144 18.5854 13.3118 18.2924 13.6048C17.9994 13.8979 17.6019 14.0625 17.1875 14.0625C16.7731 14.0625 16.3757 13.8979 16.0827 13.6048C15.7897 13.3118 15.625 12.9144 15.625 12.5C15.625 12.0856 15.7897 11.6882 16.0827 11.3951C16.3757 11.1021 16.7731 10.9375 17.1875 10.9375Z" fill="black"/>
</g>
<defs>
<clipPath id="clip0_254_3">
<rect width="25" height="25" fill="white"/>
</clipPath>
</defs>
</svg>
